<svg version="1.1" id="Camada_2" xmlns="http://www.w3.org/2000/svg" xmlns:xlink="http://www.w3.org/1999/xlink" x="0px" y="0px"
    width="721.464px" height="324.698px" viewBox="0 0 721.464 324.698" enable-background="new 0 0 721.464 324.698"
    xml:space="preserve">
    <g>
    <path fill="#252525" d="M58.902,266.398c-10-6.667-16.333-17.667-19-26.501c-1.846-6.116-4.512-12.888-0.955-18.333
    c-5.029-4.438-7.98-13.388-9.816-19.569c-1.852-6.234-4.333-15.636-1.724-21.91c0.04-0.096,0.096-0.185,0.159-0.27
    c0.318-6.177,1.569-12.245,3.682-18.119c0.517-1.438,1.615-2.152,2.768-2.3c0.401-1.108,0.835-2.216,1.304-3.309
    c2.225-5.642,5.107-11.808,10.071-14.786c1.458-0.876,3.42,0.58,2.91,2.236c-0.949,3.082-2.802,5.746-4.234,8.618
    c-1.693,3.396-3.072,6.945-4.378,10.505c-0.505,1.376-1.02,2.757-1.521,4.143c-0.146,0.496-0.287,0.994-0.443,1.488
    c-0.089,0.281-0.209,0.523-0.345,0.747c-0.517,1.506-1,3.02-1.422,4.546c-0.651,5.645-0.756,11.354-0.271,17.018
    c0.306,3.57,0.698,7.625,1.545,11.561c2.431,4.175,4.879,8.341,7.332,12.504c4.325-4.222,10.479-8.354,16.649-8.557
    c2.045-0.753,4.16-1.408,6.325-2.039c0.204-0.093,0.416-0.157,0.631-0.189c0.115-0.033,0.226-0.068,0.341-0.102
    c0.003,0.026,0.006,0.054,0.01,0.08c0.638,0.014,1.25,0.33,1.611,1.074c3.014,6.199,3.7,13.473,6.261,19.905
    c0.033,0.083,0.073,0.159,0.107,0.242c3.951,4.423,9.527,7.112,17.22,6.994c14.324-0.212,21.504-12.874,23.22-25.437
    c0.109,0.037,0.219,0.083,0.31,0.147c1.269,20.093,20.374,31.046,38.092,34.136c17.08,2.988,36.596,0.101,50.701-10.594
    c0.336,4.496,1.695,9.104,3.02,13.122c2.162,6.548,5.246,12.636,8.777,18.521c3.641,6.07,12.285,16.822,11.563,23.927
    c-0.063,0.625-10.459,4.251-21.5,7.834c0,0,13.253-5.389-13.668,2.666c-21.166,6.333-35.592,4.479-35.592,4.479
    s-20.074,2.354-34.407-2.646c-20.651-7.204-43.334-20.334-43.334-20.334s-34.899-19.34-38.252-45.771"/>
    <path fill="#030406" d="M234.145,287.293c-2.742-9.896-2.523-12.467-9.688-23.175c-3.949-5.897-7.943-11.606-10.654-18.204
    c-2.252-5.476-3.025-11.391-4.855-16.938c10.725-10.656,13.871-27.386,13.688-42.027c0.045-0.004,0.086-0.009,0.129-0.015
    c1.328,13.62,5.836,33.935,19.979,39.143c11.605,4.281,20.986-6.696,22.816-17.118c1.373-7.772,1.24-15.501-0.035-23.041
    c-2.127-12.558-7.432-24.595-14.271-35.429c-4.094-6.481-8.205-12.899-11.805-19.667c-2.871-5.377-4.936-5.125-10.699-4.533
    c-0.342,0.036-0.699,0.063-1.006-0.08c-0.322-0.162-0.52-0.485-0.699-0.8c-9.164-15.689-21.83-27.942-39.189-34.198
    c-18.725-6.651-40.07-3.268-56.802,7.055c-13.078,8.061-21.336,20.376-28.248,33.571c-3.815,1.373-6.57,0.682-9.775,3.177
    c-2.989,2.334-5.467,6.418-7.603,9.506c-4.775,6.921-8.554,14.523-11.256,22.477c-2.81,8.294-5.377,22.09-4.757,35.024
    c-7.845-0.403-15.394,2.738-21.848,7.675c-9.918-10.277-10.601-24.711-7.19-38.229c3.357-13.303,8.949-25.717,17.477-36.47
    c4.003-5.045-3.573-2.495-5.602-1.148c-4.201,2.782-7.863,6.273-11.067,10.151c-6.391,7.737-11.112,17.072-13.743,26.749
    c-4.506,16.543-2.558,38.059,7.926,52.188c-1.921,2.89,2.85,12.368,3.536,15.462c1.25,5.636,7.487,15.508,8.921,17.224
    c18.829,22.526,34.664,26.635,56.413,37.443c0,0,30.416,17.583,80.716,10.847c0,0,26.899-3.859,47.425-15.645 M31.156,196.94
    c-1.355-8.519-1.005-17.207,1.104-25.564c1.849-7.307,5.063-14.164,9.407-20.321c1.588-2.244,3.321-4.255,5.143-6.122
    c-0.871,1.418-1.678,2.854-2.423,4.291c-3.824,7.288-7.1,15.367-9.057,23.355c-3.33,13.626-2.513,30.375,8.294,40.465
    c-1.759,1.66-3.384,3.455-4.901,5.313C35.375,211.419,32.395,204.75,31.156,196.94z M150.277,300.921
    c-39.625,0.25-80.611-33.189-80.611-33.189c-16.333-7.333-19.054-17.124-24.033-26.152c-5.063-9.181-3.696-19.093,2.892-24.882
    c6.355-5.574,13.384-8.088,21.22-10.305c1.643,15.062,8.258,27.871,24.801,27.619c14.093-0.206,21.157-12.566,22.845-24.828
    c0.107,0.036,0.215,0.081,0.305,0.144c1.248,19.613,20.043,30.304,37.475,33.319c16.805,2.918,36.004,0.1,49.881-10.34
    c0.332,4.389,1.67,8.886,2.971,12.809c2.129,6.391,3.209,14.125,8.637,18.078c10.578,7.704,12.745,22.704,12.745,22.704
    C181.562,305.73,150.277,300.921,150.277,300.921z M163.318,238.895c0.961-0.297,1.912-0.629,2.84-1.024
    c2.025-0.863,4.326-3,6.361-2.525c1.732,0.403,3.564,1.654,5.346,2.334C173.049,238.588,168.131,239.03,163.318,238.895z
    M258.684,210.854c-0.871,2.558-2.154,4.9-3.977,6.857c-2.227,2.388-5.494,3.968-8.734,3.563c-4.316-0.538-7.467-4.255-9.838-7.907
    c-4.721-7.271-7.729-15.395-9.434-23.868c-1.939-9.649-2.846-20.726,0.01-30.285c0.449-1.513,0.996-2.988,1.58-4.452
    c0.48-0.844,0.854-1.784,1.139-2.774c0.756-1.801,1.516-3.601,2.174-5.438c1.301-3.663,3.652-13.321-3.088-13.249
    c-0.211,0-0.391,0.163-0.459,0.358c-0.205-0.019-0.412,0.011-0.602,0.116c-5.063,2.822-5.639,9.678-6.637,14.8
    c-1.48,7.592-2.615,15.215-3.465,22.902c-0.084,0.762,0.191,1.304,0.631,1.643c0.014,0.644,0.027,1.287,0.059,1.932
    c0.021,0.438,0.135,0.798,0.303,1.101c0.182,1.794,0.482,3.575,0.887,5.341c0.043,1.195,0.125,2.393,0.172,3.582
    c0.377,10.125-2.254,20.726-5.943,30.142c-0.727,1.193-1.436,2.388-2.18,3.555c-7.941,12.438-24.795,21.316-38.746,13.053
    c-0.342-0.203-0.707-0.413-1.105-0.416c-0.494-0.004-0.926,0.305-1.328,0.59c-8.051,5.701-18.059,6.412-26.797,2.177
    c-4.237-1.392-8.177-3.492-11.507-6.724c-2.881-2.792-5.009-6.14-6.741-9.703c-6.481-13.393-6.49-26.946-8.581-41.309
    c-1.023-7.073-2.406-14.245-5.233-20.842c-1.813-4.246-8.105-11.598-5.619-16.463c0.333-0.646-0.565-1.472-1.068-0.825
    c-1.975,2.504-2.02,4.838-1.077,7.872c2.962,9.496,7.603,18.284,9.47,28.122c1.984,10.439,2.459,21.471,0.673,31.973
    c-1.14,6.66-3.42,13.438-8.276,18.132c-13.347,12.935-28.508-2.459-31.066-16.588c-3.366-18.58,4.74-40.886,13.419-56.963
    c2.81-5.215,6.355-10.483,11.804-12.791c0.952-0.403,1.957-0.709,2.944-1.032c0.979-0.332,1.957-0.682,2.854-1.193
    c0.26-0.144,0.511-0.323,0.763-0.512c9.874-24.738,34.756-43.849,61.864-43.337c15.008,0.287,29.299,6.445,40.248,16.633
    c3.932,3.645,7.219,7.881,10.018,12.441c1.607,2.611,3.133,6.776,6.141,8.401c3.348,1.805,8.303-0.826,10.322,3.375
    c1.248,2.585,2.289,5.242,3.635,7.791C249.025,160.91,266.834,186.762,258.684,210.854z"/>
    <path fill="#FFFFFF" d="M127.862,299.313c0,0-3.106-1.935,6.985-5.935c0,0,12.78-4,17.561-24.75c0,0,3.931-14.25,13.605-15
    c0,0,14.925-3.5,19.175,16.75c0,0,3.043,12.501,0,19.5c0,0-3.386,9.632-5.785,11.553
    C179.402,301.431,167.516,310.984,127.862,299.313z"/>
    <path fill="none" stroke="#B474AB" stroke-width="9" stroke-miterlimit="10" d="M301.425,162.578
    c0,78.855-63.924,142.783-142.781,142.783c-78.854,0-142.782-63.928-142.782-142.783c0-78.86,63.928-142.787,142.782-142.787
    C237.501,19.791,301.425,83.718,301.425,162.578z"/>
    <path fill="#0A0C0D" d="M109.946,152.37c-1.309-4.07-2.618-8.142-3.928-12.213c-0.19-0.591-0.558-1.01-1.002-1.268
    c-0.025-0.032-0.043-0.067-0.07-0.1c-0.254-0.309-0.755-0.364-1.141-0.206c-1.102,0.012-2.177,0.758-2.187,2.168
    c-0.022,3.216,0.592,5.886,1.9,8.812c0.294,0.659,0.746,1.005,1.243,1.124c0.312,0.951,0.624,1.903,0.936,2.854
    c1.031,3.145,2.017,6.6,4.547,8.848c0.362,0.321,1.026,0.229,1.143-0.302C112.122,158.758,110.966,155.541,109.946,152.37z"/>
    <path fill="#252525" d="M239.755,139.919c-1.393-2.637-2.469-5.385-3.76-8.059c-2.089-4.345-7.213-1.624-10.676-3.49
    c-3.11-1.681-4.688-5.988-6.35-8.689c-2.896-4.716-6.295-9.099-10.361-12.867c-11.326-10.537-26.105-16.905-41.628-17.203
    c-28.037-0.528-53.771,19.236-63.982,44.822c-0.26,0.194-0.52,0.38-0.79,0.528c-0.928,0.529-1.94,0.892-2.952,1.235
    c-1.021,0.334-2.061,0.649-3.045,1.067c-5.635,2.386-9.302,7.835-12.208,13.229c-8.977,16.627-16.268,39.279-13.879,58.914
    c1.794,14.741,20.167,29.758,33.972,16.381c0.404-0.391-0.37,0.417,0,0c9.544-6.704,9.842-23.521,9.814-34.014
    c-0.023-8.544-0.974-17.242-3.059-25.537c-1.106-4.4-2.515-8.771-4.246-12.964c-0.609-1.477-1.288-2.946-1.909-4.43
    c1.371,2.455,2.896,4.768,3.658,6.551c2.924,6.823,4.354,14.241,5.413,21.557c2.163,14.854,2.172,28.872,8.875,42.724
    c1.792,3.686,3.992,7.148,6.972,10.035c3.444,3.342,7.52,5.515,11.902,6.953c4.558,2.21,9.479,3.695,14.528,4.392
    c11.875,1.625,25.002-0.649,36.067-5.097c7.798-3.138,15.513-8.012,19.71-15.226c0.77-1.206,1.504-2.441,2.256-3.676
    c3.814-9.738,6.535-20.702,6.145-31.175c-0.12-3.119-0.491-6.294,0.195-9.349c1.652-7.398,2.971-15.578,5.729-22.688
    c0.566-1.461,1.262-2.95,1.953-4.457c-0.027,0.146-0.057,0.29-0.084,0.435c-1.848,6.035-4.469,11.929-5.331,18.219
    c-1.173,8.55-0.514,17.376,1.751,25.702c2.159,7.942,5.666,16.195,10.688,22.761c1.975,2.581,5.071,5.519,8.237,6.102
    c0.146,0.027,1.068,0.344,1.209,0.333c1.113,0.645,1.822,0.22,3.133,0.384c3.352,0.418,6.73-1.217,9.033-3.686
    c1.885-2.024,3.336-4.408,4.112-7.093C268.152,187.272,250.858,160.891,239.755,139.919z"/>
    <path fill="#8E5B21" d="M189.235,202.71c-0.354,5.068-6.952,11.587-6.952,11.587c-6.994,6.4-14.539,5.075-14.539,5.075
    c-7.283-0.025-12.286-4.617-12.286-4.617c-9.069-6.142-9.402-11.009-9.402-11.009c-1.47-8.016,5.931-17.595,8.597-20.599
    c0.603-0.679,1.403-4.014,1.403-4.014c2.967-18.614,0.734-25.846,0.734-25.846c-2.638-14.79-17.263-18.453-17.263-18.453
    c-14.938-4.875-34.894,10.868-34.894,10.868c0.725,2.255,5.012,9.258,5.012,9.258c0.953,3.01,1.974,5.385,1.974,5.385
    c0.029,0.093,0.433,1.456,0.433,1.456c2.406,6.84,3.604,19.97,3.604,19.97c2.254,29.499,9.688,38.823,9.688,38.823
    c10.308,16.178,28.927,15.643,28.927,15.643c8.807-0.473,14.098-4.78,14.098-4.78c1.55-1.274,2.571-0.27,2.571-0.27
    c8.287,4.79,16.042,2.824,16.042,2.824c16.057-3.839,22.17-15.177,22.17-15.177s7.167-10.021,8.5-28.521
    c0,0,0.438-5.292-0.063-9.854c0,0-1.563-5.875-0.938-16.75c0,0,2.165-14.947,3.166-19.046c0,0,1.333-6.099,1.917-7.099
    c0,0-10.271-6.292-22.666-6.417c0,0-23.5-3.417-23.834,18.573c0,0,3.214,11.011,4.916,23.677c0,0,3.116,9.355,4.025,10.2
    c3.021,2.806,7.798,8.039,5.271,19.347"/>
    <path fill="#030405" d="M137.372,141.167c5.585-2.896,11.737,3.5,12.771,8.718c0.08,0.38,0.139,0.768,0.158,1.143
    c0.269,4.914-4.672,9.917-9.385,8.441C134.813,157.57,130.688,144.646,137.372,141.167z"/>
    <path fill="#FFFFFF" d="M140.953,146.927c1.949-1.01,4.098,1.222,4.458,3.044c0.026,0.133,0.047,0.269,0.056,0.399
    c0.095,1.715-1.632,3.462-3.278,2.946C140.06,152.653,138.62,148.142,140.953,146.927z"/>
    <path fill="#030405" d="M194.76,138.118c6.623,3.571,2.314,16.422-3.808,18.229c-4.753,1.396-9.592-3.665-9.25-8.569
    c0.023-0.372,0.088-0.762,0.175-1.14C182.981,141.441,189.224,135.146,194.76,138.118z"/>
    <path fill="#FFFFFF" d="M191.314,143.632c2.459,1.327,0.859,6.097-1.415,6.768c-1.765,0.519-3.56-1.36-3.432-3.181
    c0.007-0.137,0.031-0.283,0.063-0.422C186.941,144.865,189.26,142.528,191.314,143.632z"/>
    <path fill="#8E5B21" d="M180.643,237.841c-0.046-0.032-0.084-0.066-0.129-0.099c-0.083-0.009-0.171-0.034-0.263-0.081
    c-4.133-2.105-7.973-3.77-12.654-2.622c-3.288,0.806-6.144,2.675-8.953,4.497c7.48,0.675,15.354,0.436,22.834-0.998
    C181.196,238.302,180.927,238.041,180.643,237.841z"/>
    <path fill="#030406" d="M188.578,194.069c-1.687-2.996-4.771-4.879-7.941-5.985c-4.348-1.517-9.117-1.806-13.678-1.401
    c-7.024,0.622-16.537,2.869-19.959,9.813c-4.523,9.179,5.256,17.038,12.488,20.545c2.785,1.35,5.832,2.314,8.951,2.314
    c9.078,0.4,17.441-6.192,20.449-14.556C190.131,201.347,190.434,197.363,188.578,194.069z"/>
    <path fill="#6B3619" d="M147.112,123.527c-1.394-0.909-3.67-1.468-6.683-1.354c-5.561,0.211-14.073,3.074-13.331,5.881
    c0.583,2.207,8.397,1.984,13.125,1.413C148.076,128.52,150.168,125.519,147.112,123.527z"/>
    <path fill="#6B3619" d="M196.335,120.189c-1.534-0.785-3.375-1.099-5.133-1.124c-0.724-0.049-1.444-0.056-2.141-0.03
    c-3.2,0.121-9.226,1.895-7.537,4.209c0.468,0.642,1.777,1.107,2.997,1.339c2.683,0.512,4.829,0.478,7.413,0.675
    c1.72,0.131,3.355-0.097,4.581-0.56c0.04-0.011,0.086-0.02,0.126-0.031c0.822-0.252,1.363-0.64,1.615-1.091
    C199.033,122.62,198.672,121.384,196.335,120.189z"/>
    <path fill="#030406" d="M91.277,233.522c14.089-0.392,18.583-8.069,23-19.594c0.107,0.036,1.375-9.094,1.465-9.031
    c1.248,19.613,19.854,35.182,37.285,38.197c16.804,2.918,36.551-0.984,50.428-11.424l3.896-3.33
    c10.725-10.656,13.871-27.386,13.688-42.027c0.044-0.004,0.086-0.009,0.129-0.015c1.328,13.62,5.836,33.935,19.978,39.143
    c11.605,4.281,20.986-6.696,22.817-17.118c1.373-7.772,0.17-15.386-1.105-22.926c-2.127-12.558-7.366-22.916-14.206-33.75
    c-4.094-6.481-7.201-14.693-10.801-21.461c-2.871-5.377-4.936-5.125-10.699-4.533c-0.341,0.036-0.699,0.063-1.005-0.08
    c-0.323-0.162-0.521-0.485-0.7-0.8c-9.164-15.689-21.83-27.942-39.189-34.198c-18.725-6.651-40.07-3.268-56.801,7.055
    c-13.078,8.061-21.336,20.376-28.248,33.571c-3.815,1.373-5.602,1.785-8.806,4.28c-2.989,2.334-5.78,6.245-7.917,9.333
    c-4.775,6.921-7.882,14.255-10.583,22.208c-2.81,8.294-6.705,21.428-6.085,34.362C67.817,201.385,65.075,234.251,91.277,233.522z
    M161.723,238.259c0.961-0.297,1.912-0.629,2.84-1.024c2.025-0.863,4.327-3,6.361-2.525c1.732,0.403,3.564,1.654,5.346,2.334
    C171.454,237.952,166.535,238.395,161.723,238.259z M257.088,210.218c-0.871,2.558-2.154,4.9-3.977,6.857
    c-2.226,2.388-5.493,3.968-8.733,3.563c-4.317-0.538-7.468-4.255-9.838-7.907c-4.722-7.271-7.729-15.395-9.435-23.868
    c-1.938-9.649-2.845-20.726,0.01-30.285c0.449-1.513,0.997-2.988,1.58-4.452c0.48-0.844,0.62-2.002,0.906-2.993
    c0.357-2.471,0.313-4.073,0.738-5.861c0.285-1.197-0.271-4.625-0.344-8.938c-0.004-0.211-1.466-3.508-1.534-3.313
    c-0.205-0.019-0.413,0.011-0.603,0.116c-5.063,2.822-5.639,9.678-6.637,14.8c-1.479,7.592-2.615,15.215-3.465,22.902
    c-0.084,0.762,0.191,1.304,0.632,1.643c0.013,0.644,0.027,1.287,0.058,1.932c0.021,0.438,0.136,0.798,0.303,1.101
    c0.183,1.794,0.482,3.575,0.887,5.341c0.044,1.195,0.126,2.393,0.172,3.582c0.377,10.125-2.253,20.726-5.942,30.142
    c-0.728,1.193-1.437,2.388-2.181,3.555c-7.941,12.438-24.795,21.316-38.745,13.053c-0.343-0.203-0.708-0.413-1.106-0.416
    c-0.493-0.004-0.926,0.305-1.328,0.59c-8.051,5.701-18.058,6.412-26.797,2.177c-4.237-1.392-8.177-3.492-11.507-6.724
    c-2.881-2.792-5.009-6.14-6.741-9.703c-6.481-13.393-6.49-26.946-8.581-41.309c-1.023-7.073-2.406-14.245-5.233-20.842
    c-1.813-4.246-8.105-11.598-5.619-16.463c0.333-0.646-0.565-1.472-1.068-0.825c-1.975,2.504-2.02,4.838-1.077,7.872
    c2.962,9.496,7.603,18.284,9.47,28.122c1.984,10.439,2.459,21.471,0.673,31.973c-1.14,6.66-3.42,13.438-8.276,18.132
    c-13.347,12.935-28.508-2.459-31.066-16.588c-3.366-18.58,4.74-40.886,13.419-56.963c2.81-5.215,6.355-10.483,11.804-12.791
    c0.952-0.403,1.957-0.709,2.944-1.032c0.979-0.332,1.957-0.682,2.854-1.193c0.26-0.144,0.511-0.323,0.763-0.512
    c9.874-24.738,34.756-43.849,61.863-43.337c15.008,0.287,29.299,6.445,40.249,16.633c3.932,3.645,7.218,7.881,10.018,12.441
    c1.606,2.611,3.133,6.776,6.14,8.401c3.348,1.805,8.303-0.826,10.322,3.375c1.248,2.585,2.289,5.242,3.636,7.791
    C247.43,160.274,265.238,186.126,257.088,210.218z"/>
    </g>
    <g>
    <path fill="#252525" d="M330.363,134.691c3.57-0.595,8.245-1.105,14.195-1.105c7.311,0,12.666,1.7,16.066,4.761
    c3.146,2.72,5.016,6.885,5.016,11.986c0,5.186-1.53,9.266-4.42,12.241c-3.911,4.166-10.286,6.291-17.512,6.291
    c-2.21,0-4.25-0.085-5.95-0.51v22.952h-7.396V134.691z M337.759,162.318c1.615,0.425,3.655,0.595,6.12,0.595
    c8.926,0,14.366-4.335,14.366-12.241c0-7.565-5.355-11.221-13.517-11.221c-3.229,0-5.695,0.255-6.97,0.595V162.318z"/>
    <path fill="#252525" d="M377.369,172.094c0.17,10.116,6.63,14.281,14.111,14.281c5.354,0,8.585-0.935,11.391-2.125l1.274,5.355
    c-2.635,1.19-7.14,2.55-13.686,2.55c-12.666,0-20.231-8.33-20.231-20.741s7.311-22.187,19.296-22.187
    c13.432,0,17.002,11.816,17.002,19.381c0,1.53-0.17,2.72-0.255,3.485H377.369z M399.301,166.738
    c0.085-4.76-1.955-12.156-10.371-12.156c-7.565,0-10.881,6.97-11.476,12.156H399.301z"/>
    <path fill="#252525" d="M424.798,138.346v11.816h10.711v5.695h-10.711v22.187c0,5.101,1.445,7.99,5.61,7.99
    c1.956,0,3.4-0.255,4.336-0.51l0.34,5.61c-1.445,0.595-3.74,1.02-6.631,1.02c-3.485,0-6.29-1.104-8.075-3.145
    c-2.125-2.21-2.891-5.865-2.891-10.711v-22.442h-6.375v-5.695h6.375v-9.861L424.798,138.346z"/>
    <path fill="#252525" d="M461.177,182.294c3.315,2.04,8.161,3.74,13.261,3.74c7.565,0,11.986-3.995,11.986-9.776
    c0-5.355-3.061-8.416-10.796-11.391c-9.351-3.315-15.131-8.161-15.131-16.236c0-8.926,7.396-15.556,18.531-15.556
    c5.865,0,10.115,1.36,12.666,2.805l-2.04,6.036c-1.87-1.021-5.695-2.72-10.881-2.72c-7.821,0-10.796,4.675-10.796,8.585
    c0,5.355,3.485,7.991,11.391,11.051c9.69,3.74,14.621,8.416,14.621,16.832c0,8.84-6.546,16.491-20.062,16.491
    c-5.525,0-11.561-1.614-14.621-3.655L461.177,182.294z"/>
    <path fill="#252525" d="M505.887,150.162l9.011,24.312c0.935,2.72,1.955,5.951,2.635,8.416h0.17
    c0.766-2.465,1.615-5.61,2.636-8.585l8.16-24.142h7.906l-11.221,29.327c-5.355,14.111-9.011,21.337-14.111,25.758
    c-3.655,3.229-7.311,4.505-9.181,4.845l-1.87-6.29c1.87-0.595,4.335-1.785,6.545-3.655c2.04-1.615,4.591-4.506,6.291-8.331
    c0.34-0.765,0.595-1.359,0.595-1.785c0-0.425-0.17-1.02-0.51-1.955l-15.217-37.913H505.887z"/>
    <path fill="#252525" d="M541.671,183.655c2.21,1.445,6.12,2.975,9.86,2.975c5.44,0,7.991-2.72,7.991-6.12
    c0-3.57-2.125-5.525-7.651-7.565c-7.396-2.635-10.881-6.716-10.881-11.646c0-6.63,5.355-12.071,14.196-12.071
    c4.166,0,7.821,1.19,10.116,2.55l-1.87,5.44c-1.615-1.02-4.591-2.38-8.416-2.38c-4.42,0-6.886,2.55-6.886,5.61
    c0,3.4,2.466,4.93,7.821,6.971c7.141,2.72,10.796,6.291,10.796,12.411c0,7.226-5.61,12.325-15.387,12.325
    c-4.505,0-8.671-1.104-11.561-2.805L541.671,183.655z"/>
    <path fill="#252525" d="M585.361,138.346v11.816h10.711v5.695h-10.711v22.187c0,5.101,1.445,7.99,5.61,7.99
    c1.956,0,3.4-0.255,4.336-0.51l0.34,5.61c-1.445,0.595-3.74,1.02-6.631,1.02c-3.485,0-6.29-1.104-8.075-3.145
    c-2.125-2.21-2.891-5.865-2.891-10.711v-22.442h-6.375v-5.695h6.375v-9.861L585.361,138.346z"/>
    <path fill="#252525" d="M608.142,172.094c0.17,10.116,6.63,14.281,14.11,14.281c5.355,0,8.586-0.935,11.392-2.125l1.274,5.355
    c-2.635,1.19-7.14,2.55-13.686,2.55c-12.666,0-20.231-8.33-20.231-20.741s7.311-22.187,19.296-22.187
    c13.432,0,17.002,11.816,17.002,19.381c0,1.53-0.17,2.72-0.255,3.485H608.142z M630.073,166.738
    c0.085-4.76-1.955-12.156-10.371-12.156c-7.565,0-10.881,6.97-11.476,12.156H630.073z"/>
    <path fill="#252525" d="M646.56,161.298c0-4.25-0.085-7.736-0.34-11.136h6.546l0.34,6.63h0.255
    c2.295-3.91,6.121-7.565,12.921-7.565c5.61,0,9.861,3.4,11.646,8.246h0.17c1.275-2.295,2.89-4.081,4.59-5.355
    c2.466-1.87,5.186-2.89,9.096-2.89c5.44,0,13.517,3.57,13.517,17.851v24.227h-7.311v-23.292c0-7.905-2.891-12.666-8.926-12.666
    c-4.25,0-7.565,3.146-8.841,6.801c-0.34,1.02-0.595,2.38-0.595,3.74v25.417h-7.311v-24.652c0-6.545-2.891-11.306-8.586-11.306
    c-4.676,0-8.076,3.74-9.266,7.481c-0.425,1.105-0.596,2.38-0.596,3.655v24.822h-7.311V161.298z"/>
    </g>
</svg>